Fraunces-BlackOpMinGoofyMin.ufo
<glyph name="ampersand" format="2">
  <advance width="2008"/>
  <unicode hex="0026"/>
  <outline>
    <contour>
      <point x="1324" y="-40" type="curve" smooth="yes"/>
      <point x="1071" y="-40"/>
      <point x="901" y="40"/>
      <point x="782" y="223" type="curve" smooth="yes"/>
      <point x="640" y="434"/>
      <point x="570" y="621"/>
      <point x="570" y="834" type="curve" smooth="yes"/>
      <point x="570" y="1083"/>
      <point x="737" y="1280"/>
      <point x="1022" y="1280" type="curve" smooth="yes"/>
      <point x="1241" y="1280"/>
      <point x="1391" y="1151"/>
      <point x="1391" y="972" type="curve" smooth="yes"/>
      <point x="1391" y="768"/>
      <point x="1214" y="635"/>
      <point x="935" y="635" type="curve"/>
      <point x="919" y="721" type="line"/>
      <point x="999" y="721"/>
      <point x="1061" y="834"/>
      <point x="1061" y="1006" type="curve" smooth="yes"/>
      <point x="1061" y="1109"/>
      <point x="1040" y="1181"/>
      <point x="1003" y="1181" type="curve" smooth="yes"/>
      <point x="956" y="1181"/>
      <point x="921" y="1107"/>
      <point x="921" y="999" type="curve" smooth="yes"/>
      <point x="921" y="833"/>
      <point x="969" y="679"/>
      <point x="1110" y="471" type="curve" smooth="yes"/>
      <point x="1278" y="217"/>
      <point x="1375" y="145"/>
      <point x="1508" y="145" type="curve" smooth="yes"/>
      <point x="1680" y="145"/>
      <point x="1820" y="278"/>
      <point x="1820" y="568" type="curve" smooth="yes"/>
      <point x="1820" y="777"/>
      <point x="1724" y="994"/>
      <point x="1547" y="1166" type="curve" smooth="yes"/>
      <point x="1383" y="1330"/>
      <point x="1148" y="1443"/>
      <point x="888" y="1443" type="curve" smooth="yes"/>
      <point x="542" y="1443"/>
      <point x="409" y="1334"/>
      <point x="409" y="1195" type="curve" smooth="yes"/>
      <point x="409" y="1088"/>
      <point x="466" y="1040"/>
      <point x="466" y="916" type="curve" smooth="yes"/>
      <point x="466" y="812"/>
      <point x="392" y="741"/>
      <point x="287" y="741" type="curve" smooth="yes"/>
      <point x="169" y="741"/>
      <point x="94" y="835"/>
      <point x="94" y="991" type="curve" smooth="yes"/>
      <point x="94" y="1330"/>
      <point x="370" y="1553"/>
      <point x="896" y="1553" type="curve" smooth="yes"/>
      <point x="1186" y="1553"/>
      <point x="1452" y="1435"/>
      <point x="1643" y="1253" type="curve" smooth="yes"/>
      <point x="1837" y="1069"/>
      <point x="1949" y="827"/>
      <point x="1949" y="566" type="curve" smooth="yes"/>
      <point x="1949" y="186"/>
      <point x="1718" y="-40"/>
    </contour>
    <contour>
      <point x="1231" y="244" type="line"/>
      <point x="1318" y="293"/>
      <point x="1352" y="387"/>
      <point x="1352" y="460" type="curve" smooth="yes"/>
      <point x="1352" y="539"/>
      <point x="1342" y="570"/>
      <point x="1342" y="636" type="curve" smooth="yes"/>
      <point x="1342" y="729"/>
      <point x="1421" y="812"/>
      <point x="1523" y="812" type="curve" smooth="yes"/>
      <point x="1609" y="812"/>
      <point x="1679" y="736"/>
      <point x="1679" y="605" type="curve" smooth="yes"/>
      <point x="1679" y="432"/>
      <point x="1554" y="272"/>
      <point x="1266" y="178" type="curve"/>
    </contour>
    <contour>
      <point x="642" y="604" type="line"/>
      <point x="563" y="604"/>
      <point x="513" y="515"/>
      <point x="513" y="385" type="curve" smooth="yes"/>
      <point x="513" y="243"/>
      <point x="586" y="143"/>
      <point x="697" y="143" type="curve" smooth="yes"/>
      <point x="755" y="143"/>
      <point x="796" y="167"/>
      <point x="842" y="195" type="curve"/>
      <point x="892" y="123" type="line"/>
      <point x="824" y="33"/>
      <point x="697" y="-26"/>
      <point x="489" y="-26" type="curve" smooth="yes"/>
      <point x="223" y="-26"/>
      <point x="73" y="94"/>
      <point x="73" y="318" type="curve" smooth="yes"/>
      <point x="73" y="544"/>
      <point x="285" y="697"/>
      <point x="642" y="697" type="curve"/>
    </contour>
  </outline>
</glyph>
<glyph name="parenleft" format="2">
  <advance width="796"/>
  <unicode hex="0028"/>
  <outline>
    <contour>
      <point x="152" y="626" type="curve" smooth="yes"/>
      <point x="152" y="191"/>
      <point x="383" y="-126"/>
      <point x="659" y="-238" type="curve" smooth="yes"/>
      <point x="728" y="-260"/>
      <point x="772" y="-257"/>
      <point x="785" y="-226" type="curve" smooth="yes"/>
      <point x="794" y="-205"/>
      <point x="778" y="-180"/>
      <point x="743" y="-142" type="curve" smooth="yes"/>
      <point x="596" y="33"/>
      <point x="496" y="312"/>
      <point x="496" y="626" type="curve" smooth="yes"/>
      <point x="496" y="939"/>
      <point x="596" y="1218"/>
      <point x="743" y="1393" type="curve" smooth="yes"/>
      <point x="778" y="1432"/>
      <point x="794" y="1456"/>
      <point x="785" y="1477" type="curve" smooth="yes"/>
      <point x="772" y="1508"/>
      <point x="728" y="1513"/>
      <point x="659" y="1489" type="curve" smooth="yes"/>
      <point x="383" y="1377"/>
      <point x="152" y="1061"/>
    </contour>
  </outline>
</glyph>
<glyph name="three" format="2">
  <advance width="1219"/>
  <unicode hex="0033"/>
  <outline>
    <contour>
      <point x="589" y="726" type="line"/>
      <point x="1099" y="1210" type="line" smooth="yes"/>
      <point x="1156" y="1257"/>
      <point x="1185" y="1286"/>
      <point x="1185" y="1321" type="curve" smooth="yes"/>
      <point x="1185" y="1367"/>
      <point x="1148" y="1400"/>
      <point x="1091" y="1400" type="curve" smooth="yes"/>
      <point x="278" y="1400" type="line" smooth="yes"/>
      <point x="208" y="1400"/>
      <point x="166" y="1364"/>
      <point x="160" y="1307" type="curve" smooth="yes"/>
      <point x="124" y="933" type="line" smooth="yes"/>
      <point x="119" y="880"/>
      <point x="154" y="854"/>
      <point x="202" y="854" type="curve" smooth="yes"/>
      <point x="251" y="854"/>
      <point x="275" y="879"/>
      <point x="285" y="918" type="curve" smooth="yes"/>
      <point x="305" y="997" type="line" smooth="yes"/>
      <point x="317" y="1043"/>
      <point x="345" y="1063"/>
      <point x="401" y="1063" type="curve" smooth="yes"/>
      <point x="912" y="1063" type="line"/>
      <point x="900" y="1183" type="line"/>
      <point x="467" y="796" type="line" smooth="yes"/>
      <point x="431" y="767"/>
      <point x="414" y="739"/>
      <point x="414" y="704" type="curve" smooth="yes"/>
      <point x="414" y="656"/>
      <point x="449" y="633"/>
      <point x="495" y="633" type="curve" smooth="yes"/>
      <point x="567" y="633" type="line" smooth="yes"/>
      <point x="669" y="633"/>
      <point x="738" y="550"/>
      <point x="738" y="348" type="curve" smooth="yes"/>
      <point x="738" y="147"/>
      <point x="685" y="67"/>
      <point x="596" y="67" type="curve" smooth="yes"/>
      <point x="519" y="67"/>
      <point x="475" y="129"/>
      <point x="475" y="207" type="curve" smooth="yes"/>
      <point x="475" y="324" type="line" smooth="yes"/>
      <point x="475" y="435"/>
      <point x="405" y="512"/>
      <point x="283" y="512" type="curve" smooth="yes"/>
      <point x="165" y="512"/>
      <point x="73" y="419"/>
      <point x="73" y="293" type="curve" smooth="yes"/>
      <point x="73" y="106"/>
      <point x="247" y="-33"/>
      <point x="589" y="-33" type="curve" smooth="yes"/>
      <point x="941" y="-33"/>
      <point x="1162" y="141"/>
      <point x="1162" y="411" type="curve" smooth="yes"/>
      <point x="1162" y="639"/>
      <point x="976" y="778"/>
      <point x="702" y="778" type="curve" smooth="yes"/>
      <point x="644" y="778"/>
      <point x="594" y="771"/>
      <point x="555" y="759" type="curve"/>
    </contour>
  </outline>
</glyph>
<glyph name="four" format="2">
  <advance width="1367"/>
  <unicode hex="0034"/>
  <outline>
    <contour>
      <point x="636" y="606" type="curve" smooth="yes"/>
      <point x="636" y="231" type="line" smooth="yes"/>
      <point x="636" y="190"/>
      <point x="621" y="172"/>
      <point x="589" y="163" type="curve" smooth="yes"/>
      <point x="501" y="139" type="line" smooth="yes"/>
      <point x="461" y="128"/>
      <point x="437" y="104"/>
      <point x="437" y="68" type="curve" smooth="yes"/>
      <point x="437" y="25"/>
      <point x="464" y="0"/>
      <point x="523" y="0" type="curve" smooth="yes"/>
      <point x="1173" y="0" type="line" smooth="yes"/>
      <point x="1231" y="0"/>
      <point x="1258" y="26"/>
      <point x="1258" y="69" type="curve" smooth="yes"/>
      <point x="1258" y="104"/>
      <point x="1234" y="123"/>
      <point x="1193" y="139" type="curve" smooth="yes"/>
      <point x="1125" y="163" type="line" smooth="yes"/>
      <point x="1094" y="174"/>
      <point x="1076" y="191"/>
      <point x="1076" y="233" type="curve" smooth="yes"/>
      <point x="1074" y="923" type="line" smooth="yes"/>
      <point x="1074" y="963"/>
      <point x="1054" y="980"/>
      <point x="1024" y="980" type="curve" smooth="yes"/>
      <point x="1001" y="980"/>
      <point x="982" y="972"/>
      <point x="945" y="941" type="curve" smooth="yes"/>
      <point x="673" y="691" type="line" smooth="yes"/>
      <point x="649" y="670"/>
      <point x="636" y="643"/>
    </contour>
    <contour>
      <point x="396" y="787" type="curve" smooth="yes"/>
      <point x="91" y="505" type="line" smooth="yes"/>
      <point x="43" y="467"/>
      <point x="30" y="436"/>
      <point x="30" y="409" type="curve" smooth="yes"/>
      <point x="30" y="362"/>
      <point x="62" y="330"/>
      <point x="117" y="330" type="curve" smooth="yes"/>
      <point x="1210" y="330" type="line" smooth="yes"/>
      <point x="1268" y="330"/>
      <point x="1294" y="353"/>
      <point x="1294" y="400" type="curve" smooth="yes"/>
      <point x="1294" y="442"/>
      <point x="1261" y="461"/>
      <point x="1212" y="461" type="curve" smooth="yes"/>
      <point x="152" y="461" type="line"/>
      <point x="178" y="405" type="line"/>
      <point x="717" y="895" type="line" smooth="yes"/>
      <point x="903" y="1065"/>
      <point x="940" y="1152"/>
      <point x="940" y="1247" type="curve" smooth="yes"/>
      <point x="940" y="1382"/>
      <point x="839" y="1469"/>
      <point x="684" y="1469" type="curve" smooth="yes"/>
      <point x="495" y="1469"/>
      <point x="398" y="1367"/>
      <point x="398" y="1237" type="curve" smooth="yes"/>
      <point x="398" y="1111"/>
      <point x="501" y="1050"/>
      <point x="501" y="956" type="curve" smooth="yes"/>
      <point x="501" y="902"/>
      <point x="466" y="848"/>
    </contour>
  </outline>
</glyph>
<glyph name="L" format="2">
  <advance width="1332"/>
  <unicode hex="004C"/>
  <anchor x="430.0" y="1482" name="center"/>
  <anchor x="953.0" y="918" name="right"/>
  <outline>
    <contour>
      <point x="766" y="1258" type="line" smooth="yes"/>
      <point x="802" y="1275"/>
      <point x="818" y="1297"/>
      <point x="818" y="1332" type="curve" smooth="yes"/>
      <point x="818" y="1374"/>
      <point x="791" y="1400"/>
      <point x="732" y="1400" type="curve" smooth="yes"/>
      <point x="168" y="1400" type="line" smooth="yes"/>
      <point x="109" y="1400"/>
      <point x="82" y="1374"/>
      <point x="82" y="1332" type="curve" smooth="yes"/>
      <point x="82" y="1297"/>
      <point x="98" y="1275"/>
      <point x="134" y="1258" type="curve" smooth="yes"/>
      <point x="173" y="1244" type="line" smooth="yes"/>
      <point x="203" y="1232"/>
      <point x="223" y="1217"/>
      <point x="223" y="1178" type="curve" smooth="yes"/>
      <point x="223" y="222" type="line" smooth="yes"/>
      <point x="223" y="183"/>
      <point x="203" y="168"/>
      <point x="173" y="156" type="curve" smooth="yes"/>
      <point x="134" y="142" type="line" smooth="yes"/>
      <point x="98" y="125"/>
      <point x="82" y="103"/>
      <point x="82" y="68" type="curve" smooth="yes"/>
      <point x="82" y="26"/>
      <point x="109" y="0"/>
      <point x="168" y="0" type="curve" smooth="yes"/>
      <point x="919" y="0" type="line" smooth="yes"/>
      <point x="1010" y="0"/>
      <point x="1056" y="-31"/>
      <point x="1108" y="-31" type="curve" smooth="yes"/>
      <point x="1172" y="-31"/>
      <point x="1198" y="-1"/>
      <point x="1220" y="72" type="curve" smooth="yes"/>
      <point x="1300" y="425" type="line" smooth="yes"/>
      <point x="1315" y="476"/>
      <point x="1291" y="512"/>
      <point x="1246" y="521" type="curve" smooth="yes"/>
      <point x="1202" y="530"/>
      <point x="1171" y="518"/>
      <point x="1147" y="472" type="curve" smooth="yes"/>
      <point x="1080" y="332" type="line" smooth="yes"/>
      <point x="1008" y="184"/>
      <point x="932" y="143"/>
      <point x="831" y="143" type="curve" smooth="yes"/>
      <point x="754" y="143" type="line" smooth="yes"/>
      <point x="705" y="143"/>
      <point x="677" y="162"/>
      <point x="677" y="218" type="curve" smooth="yes"/>
      <point x="677" y="1178" type="line" smooth="yes"/>
      <point x="677" y="1217"/>
      <point x="697" y="1232"/>
      <point x="727" y="1244" type="curve" smooth="yes"/>
    </contour>
  </outline>
</glyph>
<glyph name="U" format="2">
  <advance width="1540"/>
  <unicode hex="0055"/>
  <anchor x="604.0" y="-99" name="right"/>
  <anchor x="857.0" y="1460" name="center"/>
  <outline>
    <contour>
      <point x="1197" y="620" type="line" smooth="yes"/>
      <point x="1200" y="567"/>
      <point x="1205" y="515"/>
      <point x="1205" y="420" type="curve" smooth="yes"/>
      <point x="1205" y="240"/>
      <point x="1093" y="130"/>
      <point x="906" y="130" type="curve" smooth="yes"/>
      <point x="741" y="130"/>
      <point x="641" y="220"/>
      <point x="641" y="440" type="curve" smooth="yes"/>
      <point x="641" y="487"/>
      <point x="642" y="558"/>
      <point x="647" y="640" type="curve" smooth="yes"/>
      <point x="680" y="1178" type="line" smooth="yes"/>
      <point x="682" y="1217"/>
      <point x="697" y="1236"/>
      <point x="730" y="1244" type="curve" smooth="yes"/>
      <point x="771" y="1254" type="line" smooth="yes"/>
      <point x="818" y="1267"/>
      <point x="844" y="1289"/>
      <point x="844" y="1331" type="curve" smooth="yes"/>
      <point x="844" y="1372"/>
      <point x="815" y="1400"/>
      <point x="763" y="1400" type="curve" smooth="yes"/>
      <point x="139" y="1400" type="line" smooth="yes"/>
      <point x="87" y="1400"/>
      <point x="58" y="1372"/>
      <point x="58" y="1331" type="curve" smooth="yes"/>
      <point x="58" y="1289"/>
      <point x="83" y="1264"/>
      <point x="131" y="1253" type="curve" smooth="yes"/>
      <point x="170" y="1244" type="line" smooth="yes"/>
      <point x="214" y="1235"/>
      <point x="229" y="1216"/>
      <point x="227" y="1177" type="curve" smooth="yes"/>
      <point x="195" y="650" type="line" smooth="yes"/>
      <point x="191" y="589"/>
      <point x="180" y="469"/>
      <point x="180" y="414" type="curve" smooth="yes"/>
      <point x="180" y="136"/>
      <point x="384" y="-33"/>
      <point x="768" y="-33" type="curve" smooth="yes"/>
      <point x="1191" y="-33"/>
      <point x="1373" y="161"/>
      <point x="1373" y="415" type="curve" smooth="yes"/>
      <point x="1373" y="488"/>
      <point x="1370" y="554"/>
      <point x="1363" y="625" type="curve" smooth="yes"/>
      <point x="1323" y="1106" type="line" smooth="yes"/>
      <point x="1317" y="1179"/>
      <point x="1351" y="1226"/>
      <point x="1413" y="1245" type="curve" smooth="yes"/>
      <point x="1441" y="1254" type="line" smooth="yes"/>
      <point x="1488" y="1267"/>
      <point x="1514" y="1290"/>
      <point x="1514" y="1331" type="curve" smooth="yes"/>
      <point x="1514" y="1372"/>
      <point x="1485" y="1400"/>
      <point x="1433" y="1400" type="curve" smooth="yes"/>
      <point x="1062" y="1400" type="line" smooth="yes"/>
      <point x="1011" y="1400"/>
      <point x="982" y="1372"/>
      <point x="982" y="1331" type="curve" smooth="yes"/>
      <point x="982" y="1290"/>
      <point x="1008" y="1265"/>
      <point x="1054" y="1253" type="curve" smooth="yes"/>
      <point x="1083" y="1245" type="line" smooth="yes"/>
      <point x="1136" y="1229"/>
      <point x="1161" y="1189"/>
      <point x="1165" y="1117" type="curve" smooth="yes"/>
    </contour>
  </outline>
</glyph>
<glyph name="W" format="2">
  <advance width="2226"/>
  <unicode hex="0057"/>
  <anchor x="1250.0" y="1486" name="center"/>
  <outline>
    <contour>
      <point x="1062" y="1089" type="line"/>
      <point x="757" y="123" type="line"/>
      <point x="895" y="226" type="line" smooth="yes"/>
      <point x="637" y="1152" type="line" smooth="yes"/>
      <point x="616" y="1211"/>
      <point x="626" y="1244"/>
      <point x="658" y="1258" type="curve" smooth="yes"/>
      <point x="693" y="1270" type="line" smooth="yes"/>
      <point x="721" y="1282"/>
      <point x="737" y="1303"/>
      <point x="737" y="1333" type="curve" smooth="yes"/>
      <point x="737" y="1374"/>
      <point x="711" y="1400"/>
      <point x="652" y="1400" type="curve" smooth="yes"/>
      <point x="114" y="1400" type="line" smooth="yes"/>
      <point x="57" y="1400"/>
      <point x="30" y="1374"/>
      <point x="30" y="1333" type="curve" smooth="yes"/>
      <point x="30" y="1303"/>
      <point x="44" y="1278"/>
      <point x="71" y="1265" type="curve" smooth="yes"/>
      <point x="107" y="1250" type="line" smooth="yes"/>
      <point x="141" y="1233"/>
      <point x="155" y="1217"/>
      <point x="172" y="1170" type="curve" smooth="yes"/>
      <point x="455" y="190" type="line" smooth="yes"/>
      <point x="463" y="165"/>
      <point x="471" y="140"/>
      <point x="471" y="125" type="curve" smooth="yes"/>
      <point x="471" y="65" type="line" smooth="yes"/>
      <point x="471" y="22"/>
      <point x="499" y="0"/>
      <point x="536" y="0" type="curve" smooth="yes"/>
      <point x="873" y="0" type="line" smooth="yes"/>
      <point x="909" y="0"/>
      <point x="937" y="22"/>
      <point x="937" y="65" type="curve" smooth="yes"/>
      <point x="937" y="125" type="line" smooth="yes"/>
      <point x="937" y="154"/>
      <point x="943" y="185"/>
      <point x="957" y="223" type="curve" smooth="yes"/>
      <point x="1219" y="1067" type="line"/>
    </contour>
    <contour>
      <point x="1763" y="1332" type="curve" smooth="yes"/>
      <point x="1763" y="1303"/>
      <point x="1779" y="1283"/>
      <point x="1804" y="1270" type="curve" smooth="yes"/>
      <point x="1828" y="1259" type="line" smooth="yes"/>
      <point x="1885" y="1234"/>
      <point x="1900" y="1185"/>
      <point x="1883" y="1120" type="curve" smooth="yes"/>
      <point x="1608" y="123" type="line"/>
      <point x="1734" y="223" type="line" smooth="yes"/>
      <point x="1479" y="1151" type="line" smooth="yes"/>
      <point x="1460" y="1208"/>
      <point x="1469" y="1242"/>
      <point x="1496" y="1254" type="curve" smooth="yes"/>
      <point x="1529" y="1266" type="line" smooth="yes"/>
      <point x="1562" y="1282"/>
      <point x="1579" y="1300"/>
      <point x="1579" y="1332" type="curve" smooth="yes"/>
      <point x="1579" y="1374"/>
      <point x="1553" y="1400"/>
      <point x="1494" y="1400" type="curve" smooth="yes"/>
      <point x="983" y="1400" type="line" smooth="yes"/>
      <point x="926" y="1400"/>
      <point x="898" y="1374"/>
      <point x="898" y="1332" type="curve" smooth="yes"/>
      <point x="898" y="1303"/>
      <point x="914" y="1284"/>
      <point x="941" y="1271" type="curve" smooth="yes"/>
      <point x="976" y="1256" type="line" smooth="yes"/>
      <point x="1006" y="1241"/>
      <point x="1009" y="1220"/>
      <point x="1026" y="1170" type="curve" smooth="yes"/>
      <point x="1305" y="190" type="line" smooth="yes"/>
      <point x="1313" y="165"/>
      <point x="1322" y="140"/>
      <point x="1322" y="125" type="curve" smooth="yes"/>
      <point x="1322" y="65" type="line" smooth="yes"/>
      <point x="1322" y="22"/>
      <point x="1350" y="0"/>
      <point x="1386" y="0" type="curve" smooth="yes"/>
      <point x="1723" y="0" type="line" smooth="yes"/>
      <point x="1759" y="0"/>
      <point x="1787" y="22"/>
      <point x="1787" y="65" type="curve" smooth="yes"/>
      <point x="1787" y="125" type="line" smooth="yes"/>
      <point x="1787" y="154"/>
      <point x="1794" y="185"/>
      <point x="1807" y="223" type="curve" smooth="yes"/>
      <point x="2043" y="1100" type="line" smooth="yes"/>
      <point x="2068" y="1188"/>
      <point x="2100" y="1228"/>
      <point x="2149" y="1252" type="curve" smooth="yes"/>
      <point x="2177" y="1266" type="line" smooth="yes"/>
      <point x="2213" y="1283"/>
      <point x="2228" y="1301"/>
      <point x="2228" y="1332" type="curve" smooth="yes"/>
      <point x="2228" y="1374"/>
      <point x="2201" y="1400"/>
      <point x="2143" y="1400" type="curve" smooth="yes"/>
      <point x="1848" y="1400" type="line" smooth="yes"/>
      <point x="1790" y="1400"/>
      <point x="1763" y="1374"/>
    </contour>
  </outline>
</glyph>
<glyph name="j" format="2">
  <advance width="690"/>
  <unicode hex="006A"/>
  <outline>
    <contour>
      <point x="563" y="274" type="curve" smooth="yes"/>
      <point x="563" y="928" type="line" smooth="yes"/>
      <point x="563" y="965"/>
      <point x="537" y="992"/>
      <point x="498" y="992" type="curve" smooth="yes"/>
      <point x="458" y="992"/>
      <point x="432" y="983"/>
      <point x="376" y="965" type="curve" smooth="yes"/>
      <point x="111" y="873" type="line" smooth="yes"/>
      <point x="68" y="857"/>
      <point x="49" y="839"/>
      <point x="49" y="809" type="curve" smooth="yes"/>
      <point x="49" y="781"/>
      <point x="64" y="767"/>
      <point x="89" y="756" type="curve" smooth="yes"/>
      <point x="111" y="751" type="line" smooth="yes"/>
      <point x="132" y="741"/>
      <point x="145" y="730"/>
      <point x="145" y="687" type="curve" smooth="yes"/>
      <point x="145" y="197" type="line" smooth="yes"/>
      <point x="145" y="26"/>
      <point x="410" y="-117"/>
      <point x="410" y="-283" type="curve" smooth="yes"/>
      <point x="410" y="-343"/>
      <point x="384" y="-372"/>
      <point x="338" y="-372" type="curve" smooth="yes"/>
      <point x="299" y="-372"/>
      <point x="276" y="-349"/>
      <point x="276" y="-298" type="curve" smooth="yes"/>
      <point x="276" y="-223" type="line" smooth="yes"/>
      <point x="276" y="-113"/>
      <point x="206" y="-38"/>
      <point x="97" y="-38" type="curve" smooth="yes"/>
      <point x="-9" y="-38"/>
      <point x="-80" y="-98"/>
      <point x="-80" y="-214" type="curve" smooth="yes"/>
      <point x="-80" y="-354"/>
      <point x="45" y="-477"/>
      <point x="298" y="-477" type="curve" smooth="yes"/>
      <point x="533" y="-477"/>
      <point x="678" y="-356"/>
      <point x="678" y="-167" type="curve" smooth="yes"/>
      <point x="678" y="-14"/>
      <point x="563" y="115"/>
    </contour>
    <contour>
      <point x="336" y="1071" type="curve" smooth="yes"/>
      <point x="482" y="1071"/>
      <point x="575" y="1152"/>
      <point x="575" y="1272" type="curve" smooth="yes"/>
      <point x="575" y="1391"/>
      <point x="482" y="1472"/>
      <point x="336" y="1472" type="curve" smooth="yes"/>
      <point x="191" y="1472"/>
      <point x="99" y="1391"/>
      <point x="99" y="1272" type="curve" smooth="yes"/>
      <point x="99" y="1152"/>
      <point x="191" y="1071"/>
    </contour>
  </outline>
</glyph>
<glyph name="o" format="2">
  <advance width="1233"/>
  <unicode hex="006F"/>
  <outline>
    <contour>
      <point x="624" y="991" type="curve" smooth="yes"/>
      <point x="285" y="991"/>
      <point x="51" y="770"/>
      <point x="51" y="487" type="curve" smooth="yes"/>
      <point x="51" y="180"/>
      <point x="275" y="-26"/>
      <point x="608" y="-26" type="curve" smooth="yes"/>
      <point x="948" y="-26"/>
      <point x="1181" y="190"/>
      <point x="1181" y="478" type="curve" smooth="yes"/>
      <point x="1181" y="781"/>
      <point x="960" y="991"/>
    </contour>
    <contour>
      <point x="696" y="121" type="curve" smooth="yes"/>
      <point x="626" y="105"/>
      <point x="552" y="209"/>
      <point x="499" y="456" type="curve" smooth="yes"/>
      <point x="447" y="704"/>
      <point x="477" y="830"/>
      <point x="541" y="845" type="curve" smooth="yes"/>
      <point x="611" y="861"/>
      <point x="685" y="756"/>
      <point x="738" y="510" type="curve" smooth="yes"/>
      <point x="789" y="270"/>
      <point x="763" y="135"/>
    </contour>
  </outline>
</glyph>
<glyph name="v" format="2">
  <advance width="1163"/>
  <unicode hex="0076"/>
  <outline>
    <contour>
      <point x="662" y="-13" type="line" smooth="yes"/>
      <point x="713" y="-13"/>
      <point x="759" y="5"/>
      <point x="787" y="67" type="curve" smooth="yes"/>
      <point x="1028" y="703" type="line" smooth="yes"/>
      <point x="1065" y="794"/>
      <point x="1086" y="822"/>
      <point x="1110" y="834" type="curve" smooth="yes"/>
      <point x="1129" y="843" type="line" smooth="yes"/>
      <point x="1160" y="862"/>
      <point x="1169" y="879"/>
      <point x="1169" y="904" type="curve" smooth="yes"/>
      <point x="1169" y="941"/>
      <point x="1141" y="964"/>
      <point x="1096" y="964" type="curve" smooth="yes"/>
      <point x="837" y="964" type="line" smooth="yes"/>
      <point x="793" y="964"/>
      <point x="765" y="941"/>
      <point x="765" y="904" type="curve" smooth="yes"/>
      <point x="765" y="875"/>
      <point x="782" y="858"/>
      <point x="814" y="843" type="curve" smooth="yes"/>
      <point x="841" y="833" type="line" smooth="yes"/>
      <point x="881" y="817"/>
      <point x="898" y="768"/>
      <point x="868" y="691" type="curve" smooth="yes"/>
      <point x="669" y="126" type="line"/>
      <point x="765" y="183" type="line"/>
      <point x="565" y="719" type="line" smooth="yes"/>
      <point x="538" y="786"/>
      <point x="552" y="818"/>
      <point x="592" y="833" type="curve" smooth="yes"/>
      <point x="618" y="843" type="line" smooth="yes"/>
      <point x="650" y="858"/>
      <point x="670" y="875"/>
      <point x="670" y="904" type="curve" smooth="yes"/>
      <point x="670" y="941"/>
      <point x="646" y="964"/>
      <point x="606" y="964" type="curve" smooth="yes"/>
      <point x="76" y="964" type="line" smooth="yes"/>
      <point x="31" y="964"/>
      <point x="3" y="941"/>
      <point x="3" y="904" type="curve" smooth="yes"/>
      <point x="3" y="875"/>
      <point x="18" y="858"/>
      <point x="44" y="843" type="curve" smooth="yes"/>
      <point x="65" y="833" type="line" smooth="yes"/>
      <point x="80" y="824"/>
      <point x="95" y="796"/>
      <point x="106" y="769" type="curve" smooth="yes"/>
      <point x="385" y="76" type="line" smooth="yes"/>
      <point x="413" y="15"/>
      <point x="452" y="-13"/>
      <point x="508" y="-13" type="curve" smooth="yes"/>
    </contour>
  </outline>
</glyph>
<glyph name="Eth" format="2">
  <advance width="1646"/>
  <unicode hex="00D0"/>
  <outline>
    <contour>
      <point x="66" y="699" type="curve" smooth="yes"/>
      <point x="66" y="667"/>
      <point x="87" y="648"/>
      <point x="117" y="648" type="curve" smooth="yes"/>
      <point x="826" y="648" type="line" smooth="yes"/>
      <point x="857" y="648"/>
      <point x="880" y="667"/>
      <point x="880" y="699" type="curve" smooth="yes"/>
      <point x="880" y="728"/>
      <point x="857" y="749"/>
      <point x="826" y="749" type="curve" smooth="yes"/>
      <point x="118" y="749" type="line" smooth="yes"/>
      <point x="89" y="749"/>
      <point x="66" y="728"/>
    </contour>
    <component base="D" xOffset="7"/>
  </outline>
</glyph>
<glyph name="Oslash" format="2">
  <advance width="1590"/>
  <unicode hex="00D8"/>
  <outline>
    <contour>
      <point x="266" y="-93" type="curve" smooth="yes"/>
      <point x="290" y="-110"/>
      <point x="316" y="-105"/>
      <point x="332" y="-82" type="curve" smooth="yes"/>
      <point x="1356" y="1419" type="line" smooth="yes"/>
      <point x="1371" y="1439"/>
      <point x="1367" y="1462"/>
      <point x="1343" y="1477" type="curve" smooth="yes"/>
      <point x="1319" y="1491"/>
      <point x="1292" y="1487"/>
      <point x="1278" y="1466" type="curve" smooth="yes"/>
      <point x="255" y="-33" type="line" smooth="yes"/>
      <point x="239" y="-55"/>
      <point x="243" y="-81"/>
    </contour>
    <component base="O" xOffset="7"/>
  </outline>
</glyph>
<glyph name="oslash" format="2">
  <advance width="1233"/>
  <unicode hex="00F8"/>
  <outline>
    <contour>
      <point x="247" y="-106" type="curve" smooth="yes"/>
      <point x="275" y="-119"/>
      <point x="297" y="-112"/>
      <point x="312" y="-87" type="curve"/>
      <point x="505" y="219" type="line"/>
      <point x="505" y="242" type="line"/>
      <point x="809" y="722" type="line"/>
      <point x="825" y="724" type="line"/>
      <point x="1012" y="1019" type="line" smooth="yes"/>
      <point x="1025" y="1041"/>
      <point x="1015" y="1063"/>
      <point x="989" y="1075" type="curve" smooth="yes"/>
      <point x="963" y="1086"/>
      <point x="939" y="1079"/>
      <point x="926" y="1056" type="curve"/>
      <point x="758" y="792" type="line"/>
      <point x="760" y="771" type="line"/>
      <point x="448" y="280" type="line"/>
      <point x="427" y="271" type="line"/>
      <point x="227" y="-48" type="line" smooth="yes"/>
      <point x="213" y="-72"/>
      <point x="222" y="-96"/>
    </contour>
    <component base="o" xScale="1.02545922778" yScale="1.02545922778" xOffset="6"/>
  </outline>
</glyph>
<glyph name="OE" format="2">
  <advance width="2132"/>
  <unicode hex="0152"/>
  <outline>
    <contour>
      <point x="878" y="1400" type="line" smooth="yes"/>
      <point x="385" y="1400"/>
      <point x="66" y="1120"/>
      <point x="66" y="681" type="curve" smooth="yes"/>
      <point x="66" y="239"/>
      <point x="356" y="1"/>
      <point x="882" y="0" type="curve" smooth="yes"/>
      <point x="1709" y="0" type="line" smooth="yes"/>
      <point x="1800" y="0"/>
      <point x="1847" y="-31"/>
      <point x="1899" y="-31" type="curve" smooth="yes"/>
      <point x="1963" y="-31"/>
      <point x="1989" y="0"/>
      <point x="2011" y="72" type="curve" smooth="yes"/>
      <point x="2087" y="394" type="line" smooth="yes"/>
      <point x="2102" y="444"/>
      <point x="2078" y="480"/>
      <point x="2031" y="490" type="curve" smooth="yes"/>
      <point x="1988" y="498"/>
      <point x="1953" y="484"/>
      <point x="1934" y="441" type="curve" smooth="yes"/>
      <point x="1817" y="192"/>
      <point x="1728" y="143"/>
      <point x="1597" y="143" type="curve" smooth="yes"/>
      <point x="1550" y="143" type="line" smooth="yes"/>
      <point x="1468" y="143"/>
      <point x="1437" y="183"/>
      <point x="1437" y="265" type="curve" smooth="yes"/>
      <point x="1437" y="1257" type="line"/>
      <point x="1579" y="1257" type="line" smooth="yes"/>
      <point x="1698" y="1257"/>
      <point x="1778" y="1224"/>
      <point x="1896" y="1006" type="curve" smooth="yes"/>
      <point x="1920" y="960"/>
      <point x="1958" y="952"/>
      <point x="1994" y="958" type="curve" smooth="yes"/>
      <point x="2038" y="965"/>
      <point x="2068" y="996"/>
      <point x="2055" y="1036" type="curve" smooth="yes"/>
      <point x="1982" y="1328" type="line" smooth="yes"/>
      <point x="1959" y="1401"/>
      <point x="1934" y="1431"/>
      <point x="1870" y="1431" type="curve" smooth="yes"/>
      <point x="1818" y="1431"/>
      <point x="1772" y="1400"/>
      <point x="1681" y="1400" type="curve" smooth="yes"/>
    </contour>
    <contour>
      <point x="590" y="704" type="curve" smooth="yes"/>
      <point x="590" y="1071"/>
      <point x="727" y="1257"/>
      <point x="927" y="1257" type="curve" smooth="yes"/>
      <point x="995" y="1257" type="line"/>
      <point x="995" y="144" type="line" smooth="yes"/>
      <point x="929" y="144" type="line" smooth="yes"/>
      <point x="752" y="144"/>
      <point x="590" y="299"/>
    </contour>
    <contour>
      <point x="1261" y="781" type="line"/>
      <point x="1261" y="651" type="line"/>
      <point x="1566" y="651" type="line" smooth="yes"/>
      <point x="1673" y="651"/>
      <point x="1691" y="629"/>
      <point x="1754" y="539" type="curve" smooth="yes"/>
      <point x="1779" y="508"/>
      <point x="1811" y="498"/>
      <point x="1844" y="509" type="curve" smooth="yes"/>
      <point x="1884" y="521"/>
      <point x="1901" y="549"/>
      <point x="1888" y="597" type="curve" smooth="yes"/>
      <point x="1808" y="906" type="line" smooth="yes"/>
      <point x="1799" y="943"/>
      <point x="1773" y="960"/>
      <point x="1737" y="960" type="curve" smooth="yes"/>
      <point x="1705" y="960"/>
      <point x="1680" y="946"/>
      <point x="1669" y="913" type="curve" smooth="yes"/>
      <point x="1646" y="817"/>
      <point x="1637" y="781"/>
      <point x="1549" y="781" type="curve" smooth="yes"/>
    </contour>
  </outline>
</glyph>
<glyph name="Uogonek" format="2">
  <advance width="1516"/>
  <unicode hex="0172"/>
  <outline>
    <contour>
      <point x="1024" y="52" type="line"/>
      <point x="733" y="-33"/>
      <point x="611" y="-136"/>
      <point x="611" y="-285" type="curve" smooth="yes"/>
      <point x="611" y="-413"/>
      <point x="703" y="-483"/>
      <point x="875" y="-483" type="curve" smooth="yes"/>
      <point x="1007" y="-483"/>
      <point x="1101" y="-424"/>
      <point x="1137" y="-351" type="curve" smooth="yes"/>
      <point x="1159" y="-310"/>
      <point x="1139" y="-283"/>
      <point x="1117" y="-276" type="curve" smooth="yes"/>
      <point x="1095" y="-269"/>
      <point x="1080" y="-278"/>
      <point x="1062" y="-295" type="curve" smooth="yes"/>
      <point x="1038" y="-323"/>
      <point x="1011" y="-339"/>
      <point x="979" y="-339" type="curve" smooth="yes"/>
      <point x="937" y="-339"/>
      <point x="906" y="-310"/>
      <point x="906" y="-244" type="curve" smooth="yes"/>
      <point x="906" y="-118"/>
      <point x="958" y="-46"/>
      <point x="1051" y="5" type="curve"/>
    </contour>
    <component base="U" xOffset="7"/>
  </outline>
</glyph>
<glyph name="ohorn" format="2">
  <advance width="1233"/>
  <unicode hex="01A1"/>
  <outline>
    <contour>
      <point x="1265" y="1145" type="curve" smooth="yes"/>
      <point x="1265" y="1247"/>
      <point x="1220" y="1304"/>
      <point x="1130" y="1304" type="curve" smooth="yes"/>
      <point x="1044" y="1304"/>
      <point x="994" y="1249"/>
      <point x="994" y="1153" type="curve" smooth="yes"/>
      <point x="994" y="1092" type="line" smooth="yes"/>
      <point x="994" y="993"/>
      <point x="944" y="946"/>
      <point x="764" y="976" type="curve" smooth="yes"/>
      <point x="721" y="982"/>
      <point x="694" y="963"/>
      <point x="694" y="934" type="curve" smooth="yes"/>
      <point x="694" y="910"/>
      <point x="716" y="899"/>
      <point x="756" y="891" type="curve" smooth="yes"/>
      <point x="1072" y="823"/>
      <point x="1265" y="950"/>
    </contour>
    <component base="o" xScale="1.02545922778" yScale="1.02545922778" xOffset="6"/>
  </outline>
</glyph>
<glyph name="uhorn" format="2">
  <advance width="1377"/>
  <unicode hex="01B0"/>
  <outline>
    <contour>
      <point x="1418" y="1153" type="curve" smooth="yes"/>
      <point x="1418" y="1253"/>
      <point x="1373" y="1311"/>
      <point x="1282" y="1311" type="curve" smooth="yes"/>
      <point x="1196" y="1311"/>
      <point x="1146" y="1255"/>
      <point x="1146" y="1160" type="curve" smooth="yes"/>
      <point x="1146" y="1106" type="line" smooth="yes"/>
      <point x="1146" y="1041"/>
      <point x="1134" y="1001"/>
      <point x="1071" y="985" type="curve" smooth="yes"/>
      <point x="1012" y="967"/>
      <point x="1003" y="944"/>
      <point x="1010" y="917" type="curve" smooth="yes"/>
      <point x="1018" y="886"/>
      <point x="1057" y="882"/>
      <point x="1084" y="883" type="curve" smooth="yes"/>
      <point x="1295" y="890"/>
      <point x="1418" y="996"/>
    </contour>
    <component base="u" xScale="1.02545922778" yScale="1.02545922778" xOffset="6"/>
  </outline>
</glyph>
<glyph name="macroncmb" format="2">
  <advance width="870"/>
  <unicode hex="0304"/>
  <outline>
    <contour>
      <point x="57" y="1252" type="curve" smooth="yes"/>
      <point x="57" y="1169"/>
      <point x="89" y="1134"/>
      <point x="145" y="1134" type="curve" smooth="yes"/>
      <point x="724" y="1134" type="line" smooth="yes"/>
      <point x="781" y="1134"/>
      <point x="813" y="1168"/>
      <point x="813" y="1253" type="curve" smooth="yes"/>
      <point x="813" y="1339"/>
      <point x="781" y="1371"/>
      <point x="724" y="1371" type="curve" smooth="yes"/>
      <point x="145" y="1371" type="line" smooth="yes"/>
      <point x="89" y="1371"/>
      <point x="57" y="1337"/>
    </contour>
  </outline>
</glyph>
<glyph name="brevecmb" format="2">
  <advance width="743"/>
  <unicode hex="0306"/>
  <outline>
    <contour>
      <point x="371" y="1324" type="curve" smooth="yes"/>
      <point x="286" y="1324"/>
      <point x="225" y="1359"/>
      <point x="174" y="1438" type="curve" smooth="yes"/>
      <point x="156" y="1464"/>
      <point x="137" y="1478"/>
      <point x="113" y="1478" type="curve" smooth="yes"/>
      <point x="74" y="1478"/>
      <point x="53" y="1446"/>
      <point x="58" y="1400" type="curve" smooth="yes"/>
      <point x="77" y="1178"/>
      <point x="208" y="1081"/>
      <point x="371" y="1081" type="curve" smooth="yes"/>
      <point x="535" y="1081"/>
      <point x="667" y="1187"/>
      <point x="685" y="1400" type="curve" smooth="yes"/>
      <point x="690" y="1446"/>
      <point x="668" y="1478"/>
      <point x="631" y="1478" type="curve" smooth="yes"/>
      <point x="607" y="1478"/>
      <point x="586" y="1464"/>
      <point x="568" y="1438" type="curve" smooth="yes"/>
      <point x="519" y="1362"/>
      <point x="461" y="1324"/>
    </contour>
  </outline>
</glyph>
<glyph name="dieresiscmb" format="2">
  <advance width="958"/>
  <unicode hex="0308"/>
  <outline>
    <contour>
      <point x="248" y="1071" type="curve" smooth="yes"/>
      <point x="367" y="1071"/>
      <point x="440" y="1141"/>
      <point x="440" y="1255" type="curve" smooth="yes"/>
      <point x="440" y="1370"/>
      <point x="367" y="1441"/>
      <point x="248" y="1441" type="curve" smooth="yes"/>
      <point x="129" y="1441"/>
      <point x="54" y="1370"/>
      <point x="54" y="1255" type="curve" smooth="yes"/>
      <point x="54" y="1140"/>
      <point x="129" y="1071"/>
    </contour>
    <contour>
      <point x="708" y="1071" type="curve" smooth="yes"/>
      <point x="830" y="1071"/>
      <point x="904" y="1141"/>
      <point x="904" y="1255" type="curve" smooth="yes"/>
      <point x="904" y="1370"/>
      <point x="830" y="1441"/>
      <point x="708" y="1441" type="curve" smooth="yes"/>
      <point x="591" y="1441"/>
      <point x="516" y="1369"/>
      <point x="516" y="1255" type="curve" smooth="yes"/>
      <point x="516" y="1140"/>
      <point x="591" y="1071"/>
    </contour>
  </outline>
</glyph>
<glyph name="gravedoublecmb" format="2">
  <advance width="857"/>
  <unicode hex="030F"/>
  <anchor x="555" y="1005" name="center"/>
  <outline>
    <contour>
      <point x="371" y="1374" type="line" smooth="yes"/>
      <point x="333" y="1480"/>
      <point x="283" y="1552"/>
      <point x="186" y="1544" type="curve" smooth="yes"/>
      <point x="102" y="1539"/>
      <point x="51" y="1473"/>
      <point x="56" y="1400" type="curve" smooth="yes"/>
      <point x="63" y="1329"/>
      <point x="104" y="1286"/>
      <point x="191" y="1233" type="curve" smooth="yes"/>
      <point x="360" y="1103" type="line" smooth="yes"/>
      <point x="385" y="1090"/>
      <point x="416" y="1087"/>
      <point x="435" y="1102" type="curve" smooth="yes"/>
      <point x="454" y="1119"/>
      <point x="450" y="1140"/>
      <point x="440" y="1167" type="curve" smooth="yes"/>
    </contour>
    <contour>
      <point x="732" y="1368" type="line" smooth="yes"/>
      <point x="699" y="1476"/>
      <point x="654" y="1548"/>
      <point x="557" y="1547" type="curve" smooth="yes"/>
      <point x="473" y="1546"/>
      <point x="417" y="1482"/>
      <point x="418" y="1409" type="curve" smooth="yes"/>
      <point x="422" y="1338"/>
      <point x="461" y="1292"/>
      <point x="543" y="1235" type="curve" smooth="yes"/>
      <point x="708" y="1100" type="line" smooth="yes"/>
      <point x="732" y="1085"/>
      <point x="764" y="1081"/>
      <point x="783" y="1095" type="curve" smooth="yes"/>
      <point x="804" y="1110"/>
      <point x="802" y="1132"/>
      <point x="794" y="1159" type="curve" smooth="yes"/>
    </contour>
  </outline>
</glyph>
<glyph name="dieresisbelowcmb" format="2">
  <advance width="964"/>
  <unicode hex="0324"/>
  <outline>
    <contour>
      <point x="250" y="-444" type="curve" smooth="yes"/>
      <point x="369" y="-444"/>
      <point x="443" y="-373"/>
      <point x="443" y="-259" type="curve" smooth="yes"/>
      <point x="443" y="-145"/>
      <point x="369" y="-74"/>
      <point x="250" y="-74" type="curve" smooth="yes"/>
      <point x="132" y="-74"/>
      <point x="57" y="-145"/>
      <point x="57" y="-259" type="curve" smooth="yes"/>
      <point x="57" y="-374"/>
      <point x="132" y="-444"/>
    </contour>
    <contour>
      <point x="712" y="-444" type="curve" smooth="yes"/>
      <point x="833" y="-444"/>
      <point x="906" y="-373"/>
      <point x="906" y="-259" type="curve" smooth="yes"/>
      <point x="906" y="-145"/>
      <point x="833" y="-74"/>
      <point x="712" y="-74" type="curve" smooth="yes"/>
      <point x="594" y="-74"/>
      <point x="518" y="-145"/>
      <point x="518" y="-259" type="curve" smooth="yes"/>
      <point x="518" y="-374"/>
      <point x="593" y="-444"/>
    </contour>
  </outline>
</glyph>
<glyph name="commaaccentbelowcmb" format="2">
  <advance width="490"/>
  <unicode hex="0326"/>
  <outline>
    <contour>
      <point x="212" y="-357" type="curve" smooth="yes"/>
      <point x="257" y="-357" type="line" smooth="yes"/>
      <point x="281" y="-357"/>
      <point x="289" y="-365"/>
      <point x="289" y="-380" type="curve" smooth="yes"/>
      <point x="289" y="-417"/>
      <point x="248" y="-460"/>
      <point x="122" y="-487" type="curve" smooth="yes"/>
      <point x="82" y="-497"/>
      <point x="69" y="-520"/>
      <point x="75" y="-548" type="curve" smooth="yes"/>
      <point x="82" y="-576"/>
      <point x="108" y="-593"/>
      <point x="151" y="-581" type="curve" smooth="yes"/>
      <point x="350" y="-539"/>
      <point x="433" y="-426"/>
      <point x="433" y="-272" type="curve" smooth="yes"/>
      <point x="433" y="-138"/>
      <point x="354" y="-67"/>
      <point x="237" y="-67" type="curve" smooth="yes"/>
      <point x="137" y="-67"/>
      <point x="60" y="-128"/>
      <point x="60" y="-219" type="curve" smooth="yes"/>
      <point x="60" y="-298"/>
      <point x="109" y="-357"/>
    </contour>
  </outline>
</glyph>
<glyph name="cedillacmb" format="2">
  <advance width="648"/>
  <unicode hex="0327"/>
  <outline>
    <contour>
      <point x="275" y="19" type="line"/>
      <point x="199" y="-158" type="line" smooth="yes"/>
      <point x="183" y="-190"/>
      <point x="192" y="-211"/>
      <point x="227" y="-211" type="curve" smooth="yes"/>
      <point x="256" y="-211" type="line" smooth="yes"/>
      <point x="312" y="-211"/>
      <point x="340" y="-239"/>
      <point x="340" y="-289" type="curve" smooth="yes"/>
      <point x="340" y="-345"/>
      <point x="313" y="-372"/>
      <point x="267" y="-372" type="curve" smooth="yes"/>
      <point x="224" y="-372"/>
      <point x="192" y="-354"/>
      <point x="160" y="-304" type="curve" smooth="yes"/>
      <point x="142" y="-292"/>
      <point x="127" y="-283"/>
      <point x="105" y="-283" type="curve" smooth="yes"/>
      <point x="78" y="-283"/>
      <point x="57" y="-303"/>
      <point x="57" y="-334" type="curve" smooth="yes"/>
      <point x="65" y="-418"/>
      <point x="158" y="-478"/>
      <point x="313" y="-478" type="curve" smooth="yes"/>
      <point x="494" y="-478"/>
      <point x="591" y="-405"/>
      <point x="591" y="-292" type="curve" smooth="yes"/>
      <point x="591" y="-184"/>
      <point x="515" y="-119"/>
      <point x="373" y="-119" type="curve" smooth="yes"/>
      <point x="305" y="-119"/>
      <point x="259" y="-130"/>
      <point x="232" y="-139" type="curve"/>
      <point x="302" y="-155" type="line"/>
      <point x="375" y="19" type="line"/>
    </contour>
  </outline>
</glyph>
<glyph name="ogonekcmb" format="2">
  <advance width="664"/>
  <unicode hex="0328"/>
  <outline>
    <contour>
      <point x="481" y="61" type="line"/>
      <point x="179" y="-44"/>
      <point x="57" y="-147"/>
      <point x="57" y="-292" type="curve" smooth="yes"/>
      <point x="57" y="-424"/>
      <point x="153" y="-495"/>
      <point x="329" y="-495" type="curve" smooth="yes"/>
      <point x="463" y="-495"/>
      <point x="560" y="-435"/>
      <point x="597" y="-360" type="curve" smooth="yes"/>
      <point x="619" y="-318"/>
      <point x="599" y="-290"/>
      <point x="576" y="-283" type="curve" smooth="yes"/>
      <point x="555" y="-276"/>
      <point x="538" y="-285"/>
      <point x="520" y="-303" type="curve" smooth="yes"/>
      <point x="495" y="-331"/>
      <point x="468" y="-348"/>
      <point x="435" y="-348" type="curve" smooth="yes"/>
      <point x="392" y="-348"/>
      <point x="360" y="-318"/>
      <point x="360" y="-250" type="curve" smooth="yes"/>
      <point x="360" y="-138"/>
      <point x="410" y="-50"/>
      <point x="510" y="9" type="curve"/>
    </contour>
  </outline>
</glyph>
<glyph name="belowbrevecmb" format="2">
  <advance width="743"/>
  <unicode hex="032E"/>
  <outline>
    <contour>
      <point x="371" y="-224" type="curve" smooth="yes"/>
      <point x="286" y="-224"/>
      <point x="225" y="-189"/>
      <point x="174" y="-110" type="curve" smooth="yes"/>
      <point x="156" y="-83"/>
      <point x="137" y="-70"/>
      <point x="113" y="-70" type="curve" smooth="yes"/>
      <point x="74" y="-70"/>
      <point x="53" y="-102"/>
      <point x="58" y="-148" type="curve" smooth="yes"/>
      <point x="77" y="-369"/>
      <point x="208" y="-467"/>
      <point x="371" y="-467" type="curve" smooth="yes"/>
      <point x="535" y="-467"/>
      <point x="667" y="-360"/>
      <point x="685" y="-148" type="curve" smooth="yes"/>
      <point x="690" y="-102"/>
      <point x="668" y="-70"/>
      <point x="631" y="-70" type="curve" smooth="yes"/>
      <point x="607" y="-70"/>
      <point x="586" y="-83"/>
      <point x="568" y="-110" type="curve" smooth="yes"/>
      <point x="519" y="-186"/>
      <point x="461" y="-224"/>
    </contour>
  </outline>
</glyph>
<glyph name="minute" format="2">
  <advance width="557"/>
  <unicode hex="2032"/>
  <outline>
    <contour>
      <point x="170" y="759" type="curve" smooth="yes"/>
      <point x="204" y="759"/>
      <point x="232" y="780"/>
      <point x="265" y="841" type="curve" smooth="yes"/>
      <point x="480" y="1321" type="line" smooth="yes"/>
      <point x="546" y="1444"/>
      <point x="515" y="1535"/>
      <point x="387" y="1535" type="curve" smooth="yes"/>
      <point x="296" y="1535"/>
      <point x="240" y="1491"/>
      <point x="217" y="1378" type="curve" smooth="yes"/>
      <point x="105" y="848" type="line" smooth="yes"/>
      <point x="93" y="792"/>
      <point x="118" y="759"/>
    </contour>
  </outline>
</glyph>
<glyph name="ampersand.alt" format="2">
  <advance width="1598"/>
  <outline>
    <contour>
      <point x="747" y="1315" type="curve" smooth="yes"/>
      <point x="674" y="1315"/>
      <point x="625" y="1234"/>
      <point x="625" y="1125" type="curve" smooth="yes"/>
      <point x="625" y="985"/>
      <point x="681" y="870"/>
      <point x="790" y="833" type="curve" smooth="yes"/>
      <point x="909" y="790"/>
      <point x="982" y="749"/>
      <point x="1074" y="638" type="curve" smooth="yes"/>
      <point x="1416" y="182" type="line" smooth="yes"/>
      <point x="1441" y="150"/>
      <point x="1473" y="139"/>
      <point x="1498" y="135" type="curve" smooth="yes"/>
      <point x="1539" y="130"/>
      <point x="1565" y="113"/>
      <point x="1565" y="70" type="curve" smooth="yes"/>
      <point x="1565" y="23"/>
      <point x="1535" y="0"/>
      <point x="1482" y="0" type="curve" smooth="yes"/>
      <point x="1126" y="0" type="line" smooth="yes"/>
      <point x="1066" y="0"/>
      <point x="1023" y="18"/>
      <point x="984" y="62" type="curve" smooth="yes"/>
      <point x="627" y="511" type="line" smooth="yes"/>
      <point x="554" y="598"/>
      <point x="515" y="655"/>
      <point x="431" y="683" type="curve" smooth="yes"/>
      <point x="294" y="736"/>
      <point x="208" y="850"/>
      <point x="208" y="999" type="curve" smooth="yes"/>
      <point x="208" y="1235"/>
      <point x="405" y="1424"/>
      <point x="800" y="1424" type="curve" smooth="yes"/>
      <point x="1070" y="1424"/>
      <point x="1256" y="1294"/>
      <point x="1256" y="1101" type="curve" smooth="yes"/>
      <point x="1256" y="932"/>
      <point x="1127" y="818"/>
      <point x="753" y="772" type="curve"/>
      <point x="749" y="817" type="line"/>
      <point x="827" y="841"/>
      <point x="858" y="955"/>
      <point x="858" y="1103" type="curve" smooth="yes"/>
      <point x="858" y="1234"/>
      <point x="808" y="1315"/>
    </contour>
    <contour>
      <point x="564" y="632" type="line"/>
      <point x="519" y="630"/>
      <point x="477" y="517"/>
      <point x="477" y="426" type="curve" smooth="yes"/>
      <point x="477" y="277"/>
      <point x="553" y="169"/>
      <point x="662" y="169" type="curve" smooth="yes"/>
      <point x="753" y="169"/>
      <point x="817" y="197"/>
      <point x="868" y="270" type="curve"/>
      <point x="971" y="208" type="line"/>
      <point x="857" y="54"/>
      <point x="710" y="-26"/>
      <point x="501" y="-26" type="curve" smooth="yes"/>
      <point x="208" y="-26"/>
      <point x="50" y="124"/>
      <point x="50" y="304" type="curve" smooth="yes"/>
      <point x="50" y="499"/>
      <point x="230" y="681"/>
      <point x="564" y="700" type="curve"/>
    </contour>
    <contour>
      <point x="1176" y="430" type="line"/>
      <point x="1214" y="501" type="line" smooth="yes"/>
      <point x="1265" y="583"/>
      <point x="1252" y="653"/>
      <point x="1204" y="679" type="curve" smooth="yes"/>
      <point x="1177" y="691" type="line" smooth="yes"/>
      <point x="1154" y="706"/>
      <point x="1138" y="733"/>
      <point x="1138" y="754" type="curve" smooth="yes"/>
      <point x="1138" y="792"/>
      <point x="1174" y="824"/>
      <point x="1218" y="824" type="curve" smooth="yes"/>
      <point x="1484" y="824" type="line" smooth="yes"/>
      <point x="1540" y="824"/>
      <point x="1568" y="804"/>
      <point x="1568" y="758" type="curve" smooth="yes"/>
      <point x="1568" y="725"/>
      <point x="1557" y="696"/>
      <point x="1514" y="674" type="curve" smooth="yes"/>
      <point x="1457" y="640"/>
      <point x="1409" y="586"/>
      <point x="1357" y="505" type="curve" smooth="yes"/>
      <point x="1248" y="360" type="line"/>
    </contour>
  </outline>
</glyph>
<glyph name="brevegrave.cap" format="2">
  <advance width="727"/>
  <outline>
    <contour>
      <point x="363" y="1276" type="curve" smooth="yes"/>
      <point x="280" y="1276"/>
      <point x="221" y="1308"/>
      <point x="171" y="1379" type="curve" smooth="yes"/>
      <point x="151" y="1405"/>
      <point x="135" y="1418"/>
      <point x="111" y="1418" type="curve" smooth="yes"/>
      <point x="73" y="1418"/>
      <point x="53" y="1388"/>
      <point x="58" y="1342" type="curve" smooth="yes"/>
      <point x="75" y="1146"/>
      <point x="197" y="1051"/>
      <point x="363" y="1051" type="curve" smooth="yes"/>
      <point x="530" y="1051"/>
      <point x="653" y="1155"/>
      <point x="669" y="1342" type="curve" smooth="yes"/>
      <point x="674" y="1388"/>
      <point x="653" y="1418"/>
      <point x="616" y="1418" type="curve" smooth="yes"/>
      <point x="593" y="1418"/>
      <point x="576" y="1405"/>
      <point x="555" y="1379" type="curve" smooth="yes"/>
      <point x="507" y="1311"/>
      <point x="451" y="1276"/>
    </contour>
    <contour>
      <point x="383" y="1629" type="line" smooth="yes"/>
      <point x="327" y="1726"/>
      <point x="269" y="1781"/>
      <point x="179" y="1757" type="curve" smooth="yes"/>
      <point x="103" y="1736"/>
      <point x="71" y="1664"/>
      <point x="87" y="1597" type="curve" smooth="yes"/>
      <point x="104" y="1531"/>
      <point x="151" y="1500"/>
      <point x="237" y="1464" type="curve" smooth="yes"/>
      <point x="413" y="1391" type="line" smooth="yes"/>
      <point x="441" y="1383"/>
      <point x="470" y="1382"/>
      <point x="482" y="1399" type="curve" smooth="yes"/>
      <point x="499" y="1417"/>
      <point x="490" y="1438"/>
      <point x="479" y="1458" type="curve" smooth="yes"/>
    </contour>
  </outline>
</glyph>
<glyph name="brevetilde" format="2">
  <advance width="743"/>
  <outline>
    <contour>
      <point x="371" y="1303" type="curve" smooth="yes"/>
      <point x="290" y="1303"/>
      <point x="233" y="1338"/>
      <point x="182" y="1411" type="curve" smooth="yes"/>
      <point x="162" y="1437"/>
      <point x="144" y="1451"/>
      <point x="121" y="1451" type="curve" smooth="yes"/>
      <point x="83" y="1451"/>
      <point x="62" y="1419"/>
      <point x="67" y="1373" type="curve" smooth="yes"/>
      <point x="84" y="1176"/>
      <point x="205" y="1081"/>
      <point x="371" y="1081" type="curve" smooth="yes"/>
      <point x="538" y="1081"/>
      <point x="660" y="1184"/>
      <point x="677" y="1373" type="curve" smooth="yes"/>
      <point x="682" y="1419"/>
      <point x="660" y="1451"/>
      <point x="622" y="1451" type="curve" smooth="yes"/>
      <point x="599" y="1451"/>
      <point x="581" y="1437"/>
      <point x="560" y="1411" type="curve" smooth="yes"/>
      <point x="511" y="1341"/>
      <point x="458" y="1303"/>
    </contour>
    <contour>
      <point x="514" y="1490" type="curve" smooth="yes"/>
      <point x="620" y="1490"/>
      <point x="692" y="1577"/>
      <point x="692" y="1733" type="curve" smooth="yes"/>
      <point x="692" y="1763"/>
      <point x="676" y="1780"/>
      <point x="650" y="1782" type="curve" smooth="yes"/>
      <point x="623" y="1784"/>
      <point x="609" y="1777"/>
      <point x="591" y="1757" type="curve" smooth="yes"/>
      <point x="575" y="1707"/>
      <point x="552" y="1685"/>
      <point x="520" y="1685" type="curve" smooth="yes"/>
      <point x="447" y="1685"/>
      <point x="367" y="1789"/>
      <point x="245" y="1789" type="curve" smooth="yes"/>
      <point x="132" y="1789"/>
      <point x="65" y="1704"/>
      <point x="65" y="1546" type="curve" smooth="yes"/>
      <point x="65" y="1517"/>
      <point x="82" y="1498"/>
      <point x="108" y="1496" type="curve" smooth="yes"/>
      <point x="136" y="1495"/>
      <point x="149" y="1502"/>
      <point x="167" y="1523" type="curve" smooth="yes"/>
      <point x="183" y="1572"/>
      <point x="207" y="1594"/>
      <point x="240" y="1594" type="curve" smooth="yes"/>
      <point x="312" y="1594"/>
      <point x="394" y="1490"/>
    </contour>
  </outline>
</glyph>
<glyph name="circumflexacute" format="2">
  <advance width="829"/>
  <anchor x="417" y="1005" name="center"/>
  <outline>
    <contour>
      <point x="513" y="1284" type="line"/>
      <point x="178" y="1092" type="line" smooth="yes"/>
      <point x="135" y="1069"/>
      <point x="99" y="1068"/>
      <point x="75" y="1087" type="curve" smooth="yes"/>
      <point x="56" y="1103"/>
      <point x="46" y="1139"/>
      <point x="82" y="1171" type="curve" smooth="yes"/>
      <point x="285" y="1423" type="line" smooth="yes"/>
      <point x="331" y="1463"/>
      <point x="358" y="1495"/>
      <point x="414" y="1495" type="curve" smooth="yes"/>
      <point x="471" y="1495"/>
      <point x="497" y="1463"/>
      <point x="544" y="1423" type="curve" smooth="yes"/>
      <point x="747" y="1171" type="line" smooth="yes"/>
      <point x="783" y="1139"/>
      <point x="773" y="1103"/>
      <point x="754" y="1087" type="curve" smooth="yes"/>
      <point x="730" y="1068"/>
      <point x="694" y="1069"/>
      <point x="651" y="1092" type="curve" smooth="yes"/>
      <point x="316" y="1284" type="line"/>
    </contour>
    <contour>
      <point x="714" y="1599" type="curve" smooth="yes"/>
      <point x="645" y="1408" type="line" smooth="yes"/>
      <point x="638" y="1384"/>
      <point x="634" y="1363"/>
      <point x="654" y="1347" type="curve" smooth="yes"/>
      <point x="669" y="1332"/>
      <point x="698" y="1337"/>
      <point x="725" y="1351" type="curve" smooth="yes"/>
      <point x="889" y="1457" type="line" smooth="yes"/>
      <point x="971" y="1508"/>
      <point x="1012" y="1548"/>
      <point x="1017" y="1618" type="curve" smooth="yes"/>
      <point x="1021" y="1690"/>
      <point x="976" y="1757"/>
      <point x="896" y="1764" type="curve" smooth="yes"/>
      <point x="802" y="1773"/>
      <point x="754" y="1706"/>
    </contour>
  </outline>
</glyph>
<glyph name="circumflexhook" format="2">
  <advance width="836"/>
  <anchor x="418" y="1005" name="center"/>
  <outline>
    <contour>
      <point x="513" y="1255" type="line"/>
      <point x="178" y="1092" type="line" smooth="yes"/>
      <point x="135" y="1070"/>
      <point x="99" y="1068"/>
      <point x="75" y="1087" type="curve" smooth="yes"/>
      <point x="56" y="1103"/>
      <point x="46" y="1139"/>
      <point x="82" y="1171" type="curve" smooth="yes"/>
      <point x="285" y="1394" type="line" smooth="yes"/>
      <point x="332" y="1435"/>
      <point x="358" y="1466"/>
      <point x="414" y="1466" type="curve" smooth="yes"/>
      <point x="471" y="1466"/>
      <point x="497" y="1435"/>
      <point x="544" y="1394" type="curve" smooth="yes"/>
      <point x="747" y="1171" type="line" smooth="yes"/>
      <point x="783" y="1139"/>
      <point x="773" y="1103"/>
      <point x="754" y="1087" type="curve" smooth="yes"/>
      <point x="730" y="1068"/>
      <point x="694" y="1070"/>
      <point x="651" y="1092" type="curve" smooth="yes"/>
      <point x="316" y="1255" type="line"/>
    </contour>
    <contour>
      <point x="669" y="1344" type="curve" smooth="yes"/>
      <point x="669" y="1365"/>
      <point x="681" y="1383"/>
      <point x="720" y="1388" type="curve" smooth="yes"/>
      <point x="809" y="1399"/>
      <point x="829" y="1443"/>
      <point x="829" y="1528" type="curve" smooth="yes"/>
      <point x="829" y="1602"/>
      <point x="813" y="1628"/>
      <point x="778" y="1628" type="curve" smooth="yes"/>
      <point x="745" y="1628"/>
      <point x="726" y="1609"/>
      <point x="726" y="1570" type="curve" smooth="yes"/>
      <point x="726" y="1539" type="line" smooth="yes"/>
      <point x="726" y="1485"/>
      <point x="691" y="1457"/>
      <point x="627" y="1457" type="curve" smooth="yes"/>
      <point x="572" y="1457"/>
      <point x="534" y="1490"/>
      <point x="534" y="1548" type="curve" smooth="yes"/>
      <point x="534" y="1636"/>
      <point x="640" y="1707"/>
      <point x="787" y="1707" type="curve" smooth="yes"/>
      <point x="967" y="1707"/>
      <point x="1049" y="1633"/>
      <point x="1049" y="1523" type="curve" smooth="yes"/>
      <point x="1049" y="1383"/>
      <point x="923" y="1302"/>
      <point x="726" y="1302" type="curve" smooth="yes"/>
      <point x="687" y="1302"/>
      <point x="669" y="1318"/>
    </contour>
  </outline>
</glyph>
<glyph name="circumflextilde.cap" format="2">
  <advance width="819"/>
  <outline>
    <contour>
      <point x="501" y="1204" type="line"/>
      <point x="175" y="1063" type="line" smooth="yes"/>
      <point x="131" y="1043"/>
      <point x="98" y="1039"/>
      <point x="74" y="1058" type="curve" smooth="yes"/>
      <point x="56" y="1074"/>
      <point x="45" y="1109"/>
      <point x="81" y="1139" type="curve" smooth="yes"/>
      <point x="279" y="1352" type="line" smooth="yes"/>
      <point x="326" y="1391"/>
      <point x="350" y="1422"/>
      <point x="405" y="1422" type="curve" smooth="yes"/>
      <point x="460" y="1422"/>
      <point x="485" y="1391"/>
      <point x="532" y="1352" type="curve" smooth="yes"/>
      <point x="730" y="1139" type="line" smooth="yes"/>
      <point x="766" y="1109"/>
      <point x="755" y="1074"/>
      <point x="736" y="1058" type="curve" smooth="yes"/>
      <point x="713" y="1039"/>
      <point x="680" y="1043"/>
      <point x="636" y="1063" type="curve" smooth="yes"/>
      <point x="309" y="1204" type="line"/>
    </contour>
    <contour>
      <point x="555" y="1434" type="curve" smooth="yes"/>
      <point x="661" y="1434"/>
      <point x="732" y="1520"/>
      <point x="732" y="1673" type="curve" smooth="yes"/>
      <point x="732" y="1711"/>
      <point x="717" y="1730"/>
      <point x="682" y="1730" type="curve" smooth="yes"/>
      <point x="657" y="1730"/>
      <point x="641" y="1723"/>
      <point x="631" y="1703" type="curve" smooth="yes"/>
      <point x="622" y="1648"/>
      <point x="596" y="1623"/>
      <point x="554" y="1623" type="curve" smooth="yes"/>
      <point x="484" y="1623"/>
      <point x="406" y="1721"/>
      <point x="286" y="1721" type="curve" smooth="yes"/>
      <point x="175" y="1721"/>
      <point x="109" y="1638"/>
      <point x="109" y="1483" type="curve" smooth="yes"/>
      <point x="109" y="1446"/>
      <point x="124" y="1425"/>
      <point x="159" y="1425" type="curve" smooth="yes"/>
      <point x="184" y="1425"/>
      <point x="200" y="1433"/>
      <point x="210" y="1453" type="curve" smooth="yes"/>
      <point x="221" y="1507"/>
      <point x="245" y="1532"/>
      <point x="289" y="1532" type="curve" smooth="yes"/>
      <point x="359" y="1532"/>
      <point x="437" y="1434"/>
    </contour>
  </outline>
</glyph>
<glyph name="circumflextilde" format="2">
  <advance width="839"/>
  <outline>
    <contour>
      <point x="514" y="1235" type="line"/>
      <point x="179" y="1091" type="line" smooth="yes"/>
      <point x="133" y="1072"/>
      <point x="100" y="1068"/>
      <point x="76" y="1087" type="curve" smooth="yes"/>
      <point x="56" y="1102"/>
      <point x="44" y="1140"/>
      <point x="83" y="1170" type="curve" smooth="yes"/>
      <point x="285" y="1383" type="line" smooth="yes"/>
      <point x="335" y="1422"/>
      <point x="359" y="1455"/>
      <point x="415" y="1455" type="curve" smooth="yes"/>
      <point x="472" y="1455"/>
      <point x="496" y="1422"/>
      <point x="545" y="1383" type="curve" smooth="yes"/>
      <point x="747" y="1170" type="line" smooth="yes"/>
      <point x="786" y="1140"/>
      <point x="774" y="1102"/>
      <point x="755" y="1087" type="curve" smooth="yes"/>
      <point x="731" y="1068"/>
      <point x="697" y="1072"/>
      <point x="652" y="1091" type="curve" smooth="yes"/>
      <point x="317" y="1235" type="line"/>
    </contour>
    <contour>
      <point x="571" y="1474" type="curve" smooth="yes"/>
      <point x="682" y="1474"/>
      <point x="755" y="1565"/>
      <point x="755" y="1728" type="curve" smooth="yes"/>
      <point x="755" y="1770"/>
      <point x="739" y="1791"/>
      <point x="702" y="1791" type="curve" smooth="yes"/>
      <point x="677" y="1791"/>
      <point x="660" y="1783"/>
      <point x="650" y="1762" type="curve" smooth="yes"/>
      <point x="639" y="1704"/>
      <point x="613" y="1677"/>
      <point x="569" y="1677" type="curve" smooth="yes"/>
      <point x="496" y="1677"/>
      <point x="415" y="1781"/>
      <point x="290" y="1781" type="curve" smooth="yes"/>
      <point x="175" y="1781"/>
      <point x="106" y="1693"/>
      <point x="106" y="1528" type="curve" smooth="yes"/>
      <point x="106" y="1486"/>
      <point x="122" y="1464"/>
      <point x="159" y="1464" type="curve" smooth="yes"/>
      <point x="185" y="1464"/>
      <point x="201" y="1473"/>
      <point x="212" y="1494" type="curve" smooth="yes"/>
      <point x="224" y="1552"/>
      <point x="249" y="1578"/>
      <point x="295" y="1578" type="curve" smooth="yes"/>
      <point x="367" y="1578"/>
      <point x="448" y="1474"/>
    </contour>
  </outline>
</glyph>
<glyph name="gravedouble.cap" format="2">
  <advance width="892"/>
  <anchor x="564.0" y="982" name="center"/>
  <outline>
    <contour>
      <point x="367" y="1318" type="line" smooth="yes"/>
      <point x="318" y="1417"/>
      <point x="262" y="1480"/>
      <point x="169" y="1463" type="curve" smooth="yes"/>
      <point x="89" y="1450"/>
      <point x="45" y="1379"/>
      <point x="58" y="1309" type="curve" smooth="yes"/>
      <point x="72" y="1241"/>
      <point x="117" y="1204"/>
      <point x="206" y="1161" type="curve" smooth="yes"/>
      <point x="385" y="1060" type="line" smooth="yes"/>
      <point x="410" y="1049"/>
      <point x="441" y="1049"/>
      <point x="458" y="1065" type="curve" smooth="yes"/>
      <point x="475" y="1082"/>
      <point x="469" y="1104"/>
      <point x="457" y="1128" type="curve" smooth="yes"/>
    </contour>
    <contour>
      <point x="743" y="1318" type="line" smooth="yes"/>
      <point x="700" y="1419"/>
      <point x="648" y="1484"/>
      <point x="554" y="1473" type="curve" smooth="yes"/>
      <point x="472" y="1463"/>
      <point x="426" y="1395"/>
      <point x="434" y="1325" type="curve" smooth="yes"/>
      <point x="446" y="1256"/>
      <point x="488" y="1217"/>
      <point x="574" y="1169" type="curve" smooth="yes"/>
      <point x="750" y="1062" type="line" smooth="yes"/>
      <point x="773" y="1050"/>
      <point x="805" y="1047"/>
      <point x="822" y="1062" type="curve" smooth="yes"/>
      <point x="841" y="1079"/>
      <point x="836" y="1100"/>
      <point x="826" y="1126" type="curve" smooth="yes"/>
    </contour>
  </outline>
</glyph>
<glyph name="hook.cap" format="2">
  <advance width="649"/>
  <outline>
    <contour>
      <point x="198" y="1095" type="curve" smooth="yes"/>
      <point x="198" y="1115"/>
      <point x="209" y="1133"/>
      <point x="249" y="1139" type="curve" smooth="yes"/>
      <point x="343" y="1149"/>
      <point x="364" y="1196"/>
      <point x="364" y="1282" type="curve" smooth="yes"/>
      <point x="364" y="1356"/>
      <point x="346" y="1382"/>
      <point x="311" y="1382" type="curve" smooth="yes"/>
      <point x="277" y="1382"/>
      <point x="257" y="1361"/>
      <point x="257" y="1320" type="curve" smooth="yes"/>
      <point x="257" y="1287" type="line" smooth="yes"/>
      <point x="257" y="1229"/>
      <point x="220" y="1198"/>
      <point x="154" y="1198" type="curve" smooth="yes"/>
      <point x="96" y="1198"/>
      <point x="57" y="1233"/>
      <point x="57" y="1293" type="curve" smooth="yes"/>
      <point x="57" y="1385"/>
      <point x="167" y="1460"/>
      <point x="321" y="1460" type="curve" smooth="yes"/>
      <point x="507" y="1460"/>
      <point x="592" y="1385"/>
      <point x="592" y="1273" type="curve" smooth="yes"/>
      <point x="592" y="1135"/>
      <point x="461" y="1053"/>
      <point x="255" y="1053" type="curve" smooth="yes"/>
      <point x="215" y="1053"/>
      <point x="198" y="1069"/>
    </contour>
  </outline>
</glyph>
<glyph name="invertedbreve.cap" format="2">
  <advance width="727"/>
  <outline>
    <contour>
      <point x="363" y="1186" type="curve" smooth="yes"/>
      <point x="451" y="1186"/>
      <point x="507" y="1153"/>
      <point x="555" y="1086" type="curve" smooth="yes"/>
      <point x="576" y="1061"/>
      <point x="593" y="1047"/>
      <point x="616" y="1047" type="curve" smooth="yes"/>
      <point x="653" y="1047"/>
      <point x="674" y="1078"/>
      <point x="669" y="1124" type="curve" smooth="yes"/>
      <point x="653" y="1309"/>
      <point x="530" y="1411"/>
      <point x="363" y="1411" type="curve" smooth="yes"/>
      <point x="197" y="1411"/>
      <point x="75" y="1317"/>
      <point x="58" y="1124" type="curve" smooth="yes"/>
      <point x="53" y="1078"/>
      <point x="73" y="1047"/>
      <point x="111" y="1047" type="curve" smooth="yes"/>
      <point x="135" y="1047"/>
      <point x="151" y="1061"/>
      <point x="171" y="1086" type="curve" smooth="yes"/>
      <point x="220" y="1156"/>
      <point x="280" y="1186"/>
    </contour>
  </outline>
</glyph>
